<svg width="35" height="36" viewBox="0 0 35 36" fill="none" xmlns="http://www.w3.org/2000/svg">
<path d="M24.7914 2.99973C26.7236 3.00567 28.5751 3.79781 29.9414 5.20314C31.3077 6.60848 32.0778 8.51283 32.0836 10.5003V25.4997C32.0778 27.4872 31.3077 29.3915 29.9414 30.7969C28.5751 32.2022 26.7236 32.9943 24.7914 33.0003H10.2086C8.27636 32.9943 6.42491 32.2022 5.05861 30.7969C3.69231 29.3915 2.92218 27.4872 2.91641 25.4997V10.5003C2.92218 8.51283 3.69231 6.60848 5.05861 5.20314C6.42491 3.79781 8.27636 3.00567 10.2086 2.99973H24.7914ZM24.7914 0H10.2086C4.59375 0 0 4.725 0 10.5003V25.4997C0 31.275 4.59375 36 10.2086 36H24.7914C30.4062 36 35 31.275 35 25.4997V10.5003C35 4.725 30.4062 0 24.7914 0Z" fill="#F9F0EC"/>
<path d="M26.9789 10.5003C26.5463 10.5003 26.1233 10.3683 25.7636 10.1211C25.4039 9.87384 25.1235 9.52244 24.9579 9.11131C24.7924 8.70017 24.749 8.24777 24.8334 7.81131C24.9178 7.37486 25.1262 6.97395 25.4321 6.65928C25.738 6.34461 26.1278 6.13032 26.5521 6.0435C26.9765 5.95668 27.4163 6.00124 27.816 6.17154C28.2157 6.34184 28.5574 6.63022 28.7977 7.00024C29.0381 7.37025 29.1664 7.80526 29.1664 8.25027C29.167 8.54592 29.1109 8.83879 29.0012 9.11206C28.8914 9.38533 28.7303 9.63362 28.5271 9.84268C28.3238 10.0517 28.0824 10.2174 27.8168 10.3303C27.5511 10.4431 27.2663 10.5009 26.9789 10.5003Z" fill="#F9F0EC"/>
<path d="M17.5 11.9997C18.6538 11.9997 19.7816 12.3516 20.741 13.011C21.7003 13.6703 22.448 14.6074 22.8895 15.7038C23.3311 16.8002 23.4466 18.0067 23.2215 19.1706C22.9964 20.3345 22.4408 21.4037 21.625 22.2428C20.8091 23.082 19.7697 23.6535 18.6381 23.885C17.5065 24.1165 16.3335 23.9977 15.2676 23.5435C14.2016 23.0894 13.2905 22.3203 12.6495 21.3336C12.0085 20.3468 11.6664 19.1867 11.6664 18C11.6681 16.4092 12.2832 14.8839 13.3769 13.759C14.4705 12.6341 15.9533 12.0014 17.5 11.9997ZM17.5 9C15.7694 9 14.0777 9.52784 12.6388 10.5168C11.1998 11.5057 10.0783 12.9113 9.41605 14.5558C8.75379 16.2004 8.58051 18.01 8.91813 19.7558C9.25575 21.5016 10.0891 23.1053 11.3128 24.364C12.5365 25.6226 14.0956 26.4798 15.793 26.8271C17.4903 27.1743 19.2496 26.9961 20.8485 26.3149C22.4473 25.6337 23.8139 24.4802 24.7754 23.0001C25.7368 21.5201 26.25 19.78 26.25 18C26.25 15.6131 25.3281 13.3239 23.6872 11.636C22.0462 9.94821 19.8206 9 17.5 9Z" fill="#F9F0EC"/>
</svg>
