<svg width="19" height="19" viewBox="0 0 19 19" fill="none" xmlns="http://www.w3.org/2000/svg">
<path d="M6.43051 9.55321C6.43051 7.84347 7.81614 6.4571 9.52588 6.4571C11.2356 6.4571 12.622 7.84347 12.622 9.55321C12.622 11.2629 11.2356 12.6493 9.52588 12.6493C7.81614 12.6493 6.43051 11.2629 6.43051 9.55321ZM4.75681 9.55321C4.75681 12.1872 6.89192 14.3223 9.52588 14.3223C12.1598 14.3223 14.2949 12.1872 14.2949 9.55321C14.2949 6.91925 12.1598 4.78415 9.52588 4.78415C6.89192 4.78415 4.75688 6.9191 4.75688 9.55321H4.75681ZM13.3693 4.59505C13.3692 4.81548 13.4345 5.03098 13.5569 5.21431C13.6793 5.39764 13.8533 5.54056 14.0569 5.625C14.2605 5.70943 14.4846 5.73159 14.7008 5.68868C14.917 5.64576 15.1157 5.53969 15.2716 5.38389C15.4275 5.22808 15.5337 5.02954 15.5768 4.81336C15.6199 4.59719 15.5979 4.37309 15.5137 4.1694C15.4294 3.96572 15.2866 3.7916 15.1034 3.66906C14.9201 3.54653 14.7047 3.48107 14.4843 3.48099H14.4838C14.1884 3.48112 13.905 3.59853 13.6961 3.80741C13.4871 4.0163 13.3696 4.29958 13.3693 4.59505ZM5.77369 17.1132C4.86819 17.0719 4.37602 16.9211 4.04895 16.7937C3.61533 16.6248 3.30594 16.4238 2.98065 16.0989C2.65536 15.7741 2.454 15.465 2.28594 15.0314C2.15844 14.7045 2.00761 14.2122 1.96644 13.3067C1.92142 12.3277 1.91243 12.0336 1.91243 9.55336C1.91243 7.07313 1.92216 6.77986 1.96644 5.80006C2.00768 4.89456 2.15962 4.40321 2.28594 4.07532C2.45475 3.6417 2.65581 3.33231 2.98065 3.00702C3.30549 2.68173 3.61458 2.48038 4.04895 2.31231C4.37587 2.18481 4.86819 2.03398 5.77369 1.99282C6.75268 1.94779 7.04676 1.9388 9.52588 1.9388C12.005 1.9388 12.2994 1.94839 13.2792 1.99297C14.1847 2.0342 14.676 2.18615 15.0039 2.31246C15.4375 2.48053 15.7469 2.68233 16.0722 3.00717C16.3975 3.33201 16.5981 3.64185 16.7669 4.07547C16.8944 4.40239 17.0453 4.8947 17.0864 5.80021C17.1315 6.78001 17.1404 7.07327 17.1404 9.5535C17.1404 12.0337 17.1315 12.327 17.0864 13.3068C17.0452 14.2123 16.8936 14.7045 16.7669 15.0315C16.5981 15.4652 16.3971 15.7746 16.0722 16.0991C15.7474 16.4236 15.4375 16.625 15.0039 16.7938C14.677 16.9213 14.1847 17.0721 13.2792 17.1133C12.3002 17.1583 12.0061 17.1673 9.52588 17.1673C7.04564 17.1673 6.75238 17.1583 5.77369 17.1133V17.1132ZM5.69679 0.321871C4.70807 0.366897 4.03245 0.523671 3.44243 0.75326C2.83175 0.990354 2.3141 1.30843 1.79719 1.82453C1.28028 2.34062 0.963011 2.85835 0.725917 3.46977C0.496328 4.06016 0.339553 4.7354 0.294527 5.72412C0.248758 6.7144 0.238281 7.031 0.238281 9.55321C0.238281 12.0754 0.248758 12.392 0.294527 13.3823C0.339553 14.3711 0.496328 15.0463 0.725917 15.6366C0.963011 16.2473 1.28035 16.766 1.79719 17.2819C2.31402 17.7978 2.83101 18.1154 3.44243 18.3532C4.03357 18.5827 4.70807 18.7395 5.69679 18.7845C6.68759 18.8296 7.00366 18.8408 9.52588 18.8408C12.0481 18.8408 12.3647 18.8303 13.355 18.7845C14.3438 18.7395 15.0189 18.5827 15.6093 18.3532C16.22 18.1154 16.7377 17.798 17.2546 17.2819C17.7715 16.7658 18.0881 16.2473 18.3258 15.6366C18.5554 15.0463 18.7129 14.371 18.7572 13.3823C18.8023 12.3913 18.8127 12.0754 18.8127 9.55321C18.8127 7.031 18.8023 6.7144 18.7572 5.72412C18.7122 4.73533 18.5554 4.05979 18.3258 3.46977C18.0881 2.85909 17.7707 2.34144 17.2546 1.82453C16.7385 1.30762 16.22 0.990354 15.6101 0.75326C15.0189 0.523671 14.3437 0.366154 13.3557 0.321871C12.3653 0.276622 12.0488 0.265625 9.52699 0.265625C7.00515 0.265625 6.68796 0.276101 5.69716 0.321871" fill="#F8F8F8"/>
</svg>
