<svg width="176" height="176" viewBox="0 0 176 176" fill="none" xmlns="http://www.w3.org/2000/svg">
<path d="M159.645 92.2058C159.68 91.707 159.781 91.258 159.949 90.8587C160.107 90.4587 160.276 90.1296 160.454 89.8713C160.632 89.6131 160.731 89.4847 160.751 89.486L160.057 88.4454L160.079 88.1311L163.924 88.3986L163.903 88.7128L161.343 89.4069C161.313 89.4048 161.19 89.5216 160.973 89.7571C160.756 89.9926 160.548 90.3189 160.349 90.7361C160.149 91.1533 160.029 91.6512 159.989 92.2298C159.93 93.0777 160.151 93.7246 160.651 94.1704C161.151 94.6162 161.88 94.8724 162.838 94.939L163.003 94.9504C163.94 95.0156 164.67 94.8358 165.19 94.4109C165.721 93.9867 166.021 93.2758 166.09 92.2782L166.165 91.2008L166.495 91.2237L166.42 92.3011C166.364 93.0992 166.542 93.708 166.954 94.1276C167.375 94.5579 168.01 94.8025 168.858 94.8615L168.948 94.8677C169.885 94.9329 170.597 94.792 171.082 94.4448C171.567 94.1076 171.833 93.5948 171.881 92.9065C171.915 92.4177 171.88 91.9892 171.775 91.621C171.679 91.2636 171.564 90.9749 171.429 90.755C171.293 90.545 171.215 90.4394 171.195 90.438L168.746 89.3354L168.768 89.0212L172.479 89.2793L172.457 89.5935L171.699 90.5482C171.709 90.5489 171.766 90.6631 171.871 90.8909C171.984 91.1294 172.079 91.4267 172.154 91.7828C172.23 92.1389 172.253 92.5264 172.224 92.9454C172.128 94.3221 171.785 95.3006 171.193 95.8809C170.6 96.4713 169.82 96.7328 168.853 96.6655C168.115 96.6141 167.503 96.331 167.017 95.8161C166.531 95.3111 166.261 94.5856 166.206 93.6395C165.946 94.7942 165.518 95.6115 164.923 96.0914C164.328 96.5713 163.597 96.7811 162.729 96.7207C161.622 96.6437 160.804 96.2259 160.275 95.4674C159.757 94.7096 159.546 93.6224 159.645 92.2058Z" fill="#F8F8F8"/>
<path d="M159.716 97.0827L160.024 97.1488L160.302 98.712L170.524 105.339L170.474 105.574L158.116 107.11L157.607 108.412L157.299 108.346L158.224 104.034L158.532 104.101L158.465 105.344L162.208 104.843L163.045 100.942L160.22 99.0933L159.35 100.287L159.042 100.221L159.716 97.0827ZM163.328 101.126L162.538 104.807L168.078 104.155L163.328 101.126Z" fill="#F8F8F8"/>
<path d="M154.164 116.152C154.361 115.628 154.635 115.282 154.986 115.115C155.337 114.947 155.835 114.931 156.478 115.066L158.978 115.619C159.678 115.775 160.236 115.755 160.651 115.558C161.067 115.362 161.403 114.922 161.659 114.238L162.102 113.058L156.808 111.072L156.112 112.285L155.817 112.174L157.366 108.045L157.661 108.156L157.387 109.527L167.611 113.363L168.293 112.145L168.602 112.261L167.052 116.39L166.743 116.274L167.031 114.908L162.439 113.185L161.886 114.66C161.727 115.112 161.756 115.561 161.973 116.006C162.2 116.454 162.573 116.856 163.091 117.211L164.698 118.31C165.173 118.638 165.492 118.982 165.656 119.343C165.816 119.712 165.826 120.085 165.686 120.459C165.57 120.768 165.381 121.002 165.118 121.159C164.853 121.327 164.575 121.356 164.284 121.247C164.013 121.145 163.823 120.983 163.714 120.761C163.602 120.548 163.593 120.315 163.688 120.062L163.793 119.781C164.252 119.782 164.541 119.624 164.661 119.305C164.776 118.997 164.689 118.745 164.399 118.551L162.793 117.451C162.395 117.174 162.082 116.869 161.854 116.538C161.635 116.21 161.513 115.881 161.487 115.551C161.102 116.293 160.654 116.804 160.144 117.082C159.633 117.36 159.056 117.432 158.413 117.298L156.171 116.825C155.665 116.721 155.303 116.675 155.084 116.689C154.865 116.703 154.707 116.783 154.61 116.928C154.59 116.953 154.57 116.993 154.549 117.049C154.443 117.33 154.492 117.685 154.694 118.113L154.352 118.257C153.97 117.537 153.908 116.836 154.164 116.152Z" fill="#F8F8F8"/>
<path d="M153.818 117.687L154.093 117.841L153.902 119.417L161.743 128.741L161.626 128.95L149.359 126.811L148.491 127.907L148.216 127.754L150.36 123.9L150.636 124.053L150.208 125.223L153.934 125.838L155.874 122.351L153.713 119.758L152.532 120.646L152.257 120.492L153.818 117.687ZM156.091 122.609L154.261 125.899L159.75 126.893L156.091 122.609Z" fill="#F8F8F8"/>
<path d="M145.308 130.958C145.611 130.561 145.942 130.241 146.302 130C146.654 129.752 146.975 129.57 147.266 129.452C147.557 129.334 147.71 129.281 147.726 129.293L147.717 128.042L147.908 127.791L150.975 130.127L150.784 130.377L148.264 129.552C148.241 129.534 148.073 129.564 147.763 129.641C147.452 129.719 147.099 129.877 146.703 130.117C146.308 130.356 145.934 130.706 145.583 131.167C145.068 131.844 144.897 132.505 145.07 133.153C145.243 133.8 145.712 134.414 146.476 134.996L146.607 135.096C147.355 135.665 148.063 135.916 148.732 135.846C149.408 135.783 150.049 135.354 150.655 134.558L151.309 133.699L151.572 133.899L150.918 134.758C150.433 135.395 150.247 136.002 150.361 136.578C150.477 137.169 150.873 137.722 151.549 138.237L151.621 138.292C152.369 138.861 153.041 139.134 153.637 139.11C154.227 139.095 154.731 138.812 155.149 138.263C155.446 137.873 155.652 137.496 155.766 137.131C155.883 136.78 155.945 136.475 155.953 136.217C155.955 135.967 155.948 135.836 155.932 135.824L154.49 133.557L154.681 133.307L157.641 135.56L157.45 135.811L156.292 136.193C156.3 136.199 156.285 136.326 156.247 136.573C156.212 136.835 156.127 137.135 155.995 137.474C155.862 137.814 155.669 138.15 155.415 138.484C154.578 139.582 153.754 140.211 152.941 140.371C152.121 140.539 151.326 140.33 150.554 139.742C149.965 139.294 149.61 138.721 149.487 138.024C149.358 137.335 149.53 136.58 150.004 135.76C149.152 136.582 148.346 137.03 147.585 137.104C146.825 137.179 146.098 136.952 145.406 136.425C144.523 135.753 144.069 134.954 144.044 134.03C144.026 133.112 144.448 132.088 145.308 130.958Z" fill="#F8F8F8"/>
<path d="M142.666 135.085L142.887 135.309L142.262 136.768L147.166 147.92L146.995 148.089L135.823 142.587L134.683 143.396L134.462 143.171L137.602 140.076L137.824 140.3L137.084 141.302L140.488 142.939L143.33 140.139L141.984 137.042L140.601 137.563L140.38 137.338L142.666 135.085ZM143.465 140.447L140.784 143.09L145.772 145.587L143.465 140.447Z" fill="#F8F8F8"/>
<path d="M132.62 144.441L132.808 144.694L131.835 145.698L138.454 154.59L140.439 153.113L139.58 150.049L139.929 149.79L141.927 152.473L134.093 158.303L132.096 155.62L132.457 155.351L135.133 157.062L137.13 155.575L130.512 146.683L129.27 147.327L129.082 147.074L132.62 144.441Z" fill="#F8F8F8"/>
<path d="M126.411 149.388L125.298 150.23L130.502 159.83L131.822 159.371L131.973 159.648L128.096 161.749L127.945 161.472L129.051 160.617L126.807 156.476L124.934 157.491C123.642 158.191 122.546 158.467 121.646 158.318C120.742 158.182 120.019 157.613 119.475 156.611C118.932 155.609 118.848 154.688 119.223 153.847C119.594 153.021 120.425 152.257 121.718 151.557L126.254 149.098L126.411 149.388ZM122.081 151.786C121.263 152.229 120.757 152.754 120.563 153.36C120.368 153.966 120.49 154.674 120.928 155.482L121.214 156.01C121.652 156.819 122.179 157.307 122.793 157.475C123.412 157.651 124.13 157.518 124.947 157.074L126.635 156.159L123.769 150.871L122.081 151.786Z" fill="#F8F8F8"/>
<path d="M105.79 157.462C106.275 157.338 106.733 157.294 107.165 157.328C107.594 157.353 107.959 157.41 108.26 157.498C108.562 157.586 108.715 157.64 108.72 157.66L109.49 156.674L109.795 156.596L110.747 160.332L110.442 160.41L108.98 158.197C108.973 158.168 108.823 158.087 108.532 157.955C108.24 157.823 107.865 157.728 107.406 157.669C106.948 157.611 106.437 157.653 105.875 157.796C105.051 158.006 104.506 158.418 104.24 159.033C103.973 159.648 103.959 160.42 104.196 161.351L104.236 161.511C104.469 162.422 104.868 163.058 105.435 163.419C106.004 163.79 106.773 163.852 107.742 163.605L108.789 163.338L108.87 163.658L107.824 163.925C107.048 164.122 106.526 164.482 106.257 165.005C105.98 165.54 105.947 166.219 106.157 167.043L106.179 167.13C106.411 168.041 106.768 168.672 107.25 169.024C107.722 169.379 108.292 169.471 108.961 169.3C109.436 169.179 109.831 169.012 110.148 168.797C110.458 168.594 110.696 168.394 110.862 168.197C111.019 168.002 111.095 167.895 111.09 167.876L111.369 165.204L111.674 165.126L112.593 168.731L112.287 168.809L111.143 168.388C111.146 168.398 111.055 168.488 110.872 168.659C110.681 168.842 110.428 169.025 110.114 169.208C109.799 169.391 109.438 169.535 109.031 169.638C107.694 169.979 106.657 169.96 105.921 169.58C105.174 169.202 104.681 168.543 104.442 167.603C104.259 166.886 104.336 166.217 104.673 165.594C105 164.974 105.604 164.49 106.486 164.142C105.307 164.256 104.397 164.106 103.755 163.692C103.113 163.278 102.684 162.649 102.47 161.806C102.196 160.73 102.336 159.823 102.89 159.083C103.447 158.353 104.414 157.812 105.79 157.462Z" fill="#F8F8F8"/>
<path d="M101.177 159.032L101.211 159.345L99.8137 160.1L96.7305 171.885L96.4919 171.911L91.1538 160.661L89.7576 160.586L89.7236 160.273L94.108 159.798L94.1419 160.111L92.9401 160.437L94.5906 163.834L98.5574 163.404L99.426 160.142L98.0192 159.691L97.9853 159.377L101.177 159.032ZM98.472 163.73L94.729 164.136L97.0873 169.191L98.472 163.73Z" fill="#F8F8F8"/>
<path d="M80.9457 159.707C81.5052 159.731 81.9191 159.884 82.1874 160.165C82.4557 160.447 82.626 160.915 82.6983 161.568L82.9504 164.116C83.0202 164.83 83.2131 165.354 83.5293 165.687C83.8454 166.021 84.3681 166.203 85.0974 166.234L86.3563 166.288L86.5963 160.638L85.2271 160.355L85.2405 160.04L89.6465 160.227L89.6331 160.542L88.2448 160.708L87.7814 171.618L89.1512 171.886L89.1372 172.216L84.7312 172.029L84.7452 171.699L86.1329 171.548L86.341 166.648L84.7675 166.581C84.2875 166.57 83.87 166.738 83.515 167.083C83.1596 167.438 82.894 167.917 82.7183 168.52L82.1735 170.389C82.0099 170.943 81.7822 171.353 81.4906 171.621C81.189 171.889 80.8383 172.014 80.4387 171.997C80.109 171.983 79.8283 171.876 79.5966 171.676C79.3549 171.475 79.2406 171.22 79.2537 170.911C79.266 170.621 79.3609 170.39 79.5384 170.217C79.7059 170.044 79.9245 169.963 80.1943 169.975L80.494 169.987C80.6356 170.424 80.8763 170.649 81.216 170.664C81.5457 170.678 81.7577 170.516 81.8521 170.18L82.3969 168.312C82.5367 167.847 82.7285 167.455 82.9723 167.135C83.2157 166.825 83.4902 166.606 83.7959 166.479C82.9709 166.344 82.3466 166.077 81.9231 165.679C81.4997 165.281 81.2518 164.755 81.1794 164.101L80.9309 161.824C80.8726 161.311 80.8027 160.952 80.7213 160.749C80.6399 160.545 80.5151 160.42 80.3469 160.372C80.3174 160.361 80.2726 160.354 80.2127 160.352C79.913 160.339 79.591 160.496 79.2469 160.821L79.0036 160.541C79.569 159.954 80.2164 159.676 80.9457 159.707Z" fill="#F8F8F8"/>
<path d="M79.3981 159.855L79.3379 160.164L77.7803 160.472L71.3494 170.818L71.1138 170.773L69.3418 158.447L68.0302 157.962L68.0904 157.653L72.4191 158.496L72.3589 158.805L71.1143 158.761L71.6864 162.494L75.6029 163.257L77.3975 160.397L76.187 159.55L76.2472 159.241L79.3981 159.855ZM75.4249 163.543L71.7293 162.824L72.487 168.35L75.4249 163.543Z" fill="#F8F8F8"/>
<path d="M64.2014 155.902C64.674 156.066 65.0811 156.28 65.423 156.547C65.768 156.803 66.042 157.051 66.245 157.291C66.4479 157.53 66.5461 157.659 66.5396 157.678L67.7252 157.279L68.0229 157.381L66.764 161.025L66.4663 160.922L66.462 158.27C66.4718 158.242 66.3912 158.093 66.2202 157.822C66.0492 157.551 65.7883 157.265 65.4374 156.964C65.0865 156.663 64.6369 156.418 64.0887 156.228C63.2853 155.951 62.6033 155.996 62.0427 156.363C61.4821 156.73 61.0451 157.367 60.7316 158.274L60.6777 158.43C60.3707 159.319 60.3546 160.07 60.6294 160.683C60.9009 161.306 61.5092 161.781 62.4544 162.107L63.4752 162.46L63.3674 162.772L62.3467 162.419C61.5905 162.158 60.9563 162.171 60.444 162.46C59.919 162.755 59.5177 163.304 59.2401 164.107L59.2107 164.192C58.9037 165.081 58.8547 165.804 59.0637 166.363C59.2632 166.919 59.689 167.309 60.3412 167.535C60.8043 167.695 61.2273 167.772 61.61 167.767C61.98 167.767 62.2887 167.731 62.5362 167.658C62.7742 167.582 62.8965 167.534 62.903 167.515L64.6049 165.437L64.9027 165.54L63.6879 169.056L63.3902 168.953L62.6656 167.973C62.6623 167.982 62.5371 168.008 62.29 168.049C62.0301 168.097 61.7185 168.111 61.355 168.091C60.9916 168.071 60.6113 167.993 60.2144 167.856C58.91 167.405 58.0546 166.819 57.6482 166.096C57.2324 165.371 57.1828 164.55 57.4996 163.633C57.7412 162.933 58.1738 162.416 58.7973 162.081C59.4113 161.743 60.1822 161.671 61.1098 161.865C60.0628 161.313 59.3849 160.687 59.0763 159.988C58.7677 159.289 58.7554 158.528 59.0395 157.706C59.402 156.656 60.0182 155.975 60.8881 155.662C61.7548 155.359 62.8592 155.439 64.2014 155.902Z" fill="#F8F8F8"/>
<path d="M59.4936 154.689L59.3487 154.968L57.7675 154.825L48.6794 162.937L48.4663 162.827L50.2427 150.502L49.121 149.667L49.266 149.387L53.1813 151.417L53.0363 151.696L51.8546 151.303L51.3505 155.046L54.8929 156.883L57.4212 154.645L56.4988 153.491L56.6437 153.211L59.4936 154.689ZM54.6414 157.107L51.2988 155.374L50.467 160.89L54.6414 157.107Z" fill="#F8F8F8"/>
<path d="M47.4925 148.028L47.31 148.285L46.0549 147.669L39.6328 156.704L41.6501 158.138L44.2999 156.377L44.6545 156.629L42.7166 159.356L34.7573 153.698L36.6953 150.972L37.062 151.233L36.2583 154.305L38.2879 155.748L44.71 146.713L43.7155 145.73L43.898 145.473L47.4925 148.028Z" fill="#F8F8F8"/>
<path d="M40.8948 143.67L39.7498 142.871L32.2271 150.787L33.0724 151.901L32.8554 152.129L29.6588 149.091L29.8758 148.863L31.0311 149.65L34.2758 146.236L32.7318 144.769C31.6663 143.756 31.0654 142.799 30.9293 141.897C30.7791 140.995 31.0966 140.131 31.882 139.305C32.6673 138.479 33.5174 138.114 34.4324 138.211C35.3332 138.308 36.3163 138.863 37.3819 139.876L41.1222 143.431L40.8948 143.67ZM37.2758 140.292C36.6016 139.652 35.9463 139.332 35.3098 139.335C34.6732 139.337 34.038 139.671 33.4043 140.338L32.9909 140.773C32.3571 141.44 32.0554 142.091 32.0857 142.727C32.1092 143.37 32.4579 144.012 33.132 144.652L34.5238 145.975L38.6675 141.615L37.2758 140.292Z" fill="#F8F8F8"/>
<path d="M26.8309 126.596C27.0994 127.017 27.2846 127.439 27.3865 127.86C27.4969 128.276 27.5571 128.64 27.5671 128.954C27.577 129.268 27.5736 129.43 27.5567 129.441L28.7336 129.865L28.9027 130.131L25.6502 132.201L25.4811 131.935L27.1275 129.856C27.1529 129.84 27.1828 129.673 27.2173 129.354C27.2518 129.036 27.2254 128.65 27.138 128.196C27.0506 127.742 26.8512 127.27 26.5399 126.781C26.0836 126.064 25.5218 125.674 24.8545 125.613C24.1873 125.552 23.4487 125.779 22.6387 126.294L22.4995 126.382C21.7065 126.887 21.2267 127.465 21.0602 128.116C20.8853 128.773 21.0662 129.523 21.6031 130.366L22.1828 131.278L21.9044 131.455L21.3246 130.544C20.8952 129.869 20.3902 129.485 19.8096 129.392C19.2152 129.296 18.5594 129.476 17.8423 129.932L17.7663 129.981C16.9733 130.485 16.4847 131.021 16.3006 131.589C16.1111 132.148 16.2015 132.719 16.572 133.301C16.835 133.714 17.118 134.038 17.4209 134.272C17.71 134.503 17.9743 134.667 18.2135 134.763C18.4475 134.851 18.5729 134.89 18.5897 134.879L21.2151 134.311L21.3842 134.577L18.2456 136.574L18.0765 136.308L18.1192 135.09C18.1107 135.095 17.9969 135.037 17.7775 134.916C17.5444 134.792 17.2917 134.609 17.0194 134.367C16.7471 134.126 16.4983 133.828 16.2728 133.473C15.532 132.309 15.2272 131.318 15.3584 130.499C15.4843 129.673 15.9564 128.999 16.7748 128.478C17.3991 128.081 18.0595 127.945 18.7559 128.071C19.4469 128.188 20.0953 128.611 20.7012 129.34C20.225 128.256 20.0835 127.345 20.2768 126.606C20.4702 125.866 20.9338 125.263 21.6679 124.796C22.6044 124.2 23.5105 124.05 24.3864 124.346C25.2538 124.648 26.0687 125.398 26.8309 126.596Z" fill="#F8F8F8"/>
<path d="M23.857 122.668L23.5697 122.797L22.4197 121.702L10.2583 122.417L10.1599 122.198L19.2064 113.641L18.8458 112.29L19.1331 112.161L20.9414 116.183L20.6541 116.312L19.9719 115.27L17.2524 117.891L18.8885 121.53L22.2597 121.346L22.2534 119.869L22.5407 119.74L23.857 122.668ZM18.552 121.55L17.0081 118.116L12.9306 121.923L18.552 121.55Z" fill="#F8F8F8"/>
<path d="M17.05 104.084C17.2026 104.622 17.1872 105.063 17.0037 105.406C16.8202 105.749 16.4294 106.057 15.8313 106.331L13.4903 107.368C12.8345 107.658 12.3976 108.005 12.1796 108.41C11.9616 108.814 11.9521 109.368 12.1511 110.07L12.4944 111.283L17.9354 109.742L17.7758 108.352L18.0789 108.267L19.2807 112.51L18.9776 112.596L18.3851 111.329L7.87839 114.305L8.05241 115.69L7.7349 115.78L6.53309 111.537L6.8506 111.447L7.42873 112.717L12.1481 111.381L11.7189 109.865C11.5784 109.406 11.2887 109.062 10.8497 108.833C10.401 108.607 9.86279 108.505 9.235 108.527L7.28982 108.594C6.71286 108.612 6.25153 108.525 5.90582 108.331C5.55739 108.129 5.32867 107.835 5.21966 107.45C5.12973 107.133 5.14346 106.832 5.26087 106.55C5.37555 106.257 5.58202 106.069 5.88029 105.985C6.15931 105.906 6.40858 105.923 6.62809 106.038C6.84488 106.143 6.99007 106.325 7.06365 106.585L7.14541 106.873C6.77528 107.145 6.63655 107.444 6.72921 107.771C6.81914 108.088 7.03857 108.239 7.3875 108.224L9.33269 108.156C9.8176 108.143 10.2502 108.203 10.6303 108.334C11.0009 108.468 11.2944 108.66 11.5109 108.911C11.3809 108.085 11.4388 107.409 11.6845 106.882C11.9302 106.355 12.3521 105.955 12.9503 105.681L15.0355 104.732C15.5044 104.516 15.8228 104.338 15.9907 104.197C16.1586 104.056 16.2386 103.898 16.2308 103.723C16.2322 103.692 16.2248 103.647 16.2084 103.589C16.1267 103.301 15.8773 103.044 15.4602 102.819L15.6505 102.5C16.3846 102.853 16.8511 103.381 17.05 104.084Z" fill="#F8F8F8"/>
<path d="M16.4268 102.706L16.1143 102.746L15.3328 101.364L3.48993 98.5077L3.45949 98.2696L14.6052 92.7163L14.6534 91.3189L14.9659 91.279L15.5251 95.6534L15.2127 95.6933L14.8633 94.498L11.4987 96.2135L12.0046 100.171L15.2833 100.977L15.7072 99.5618L16.0197 99.5219L16.4268 102.706ZM11.677 100.092L11.1995 96.3576L6.19041 98.8127L11.677 100.092Z" fill="#F8F8F8"/>
<path d="M15.3944 86.6119C15.3848 87.1118 15.306 87.5654 15.1581 87.9726C15.0202 88.38 14.8687 88.7172 14.7035 88.984C14.5383 89.2509 14.4457 89.3841 14.4257 89.3837L15.1715 90.3883L15.1654 90.7033L11.3111 90.6289L11.3172 90.3139L13.8385 89.4924C13.8685 89.493 13.9859 89.3703 14.1907 89.1242C14.3955 88.8781 14.587 88.5417 14.7653 88.1151C14.9436 87.6884 15.0383 87.1852 15.0495 86.6053C15.0659 85.7554 14.8131 85.1204 14.2911 84.7003C13.7691 84.2801 13.0282 84.0608 12.0684 84.0423L11.9034 84.0391C10.9636 84.0209 10.2443 84.2371 9.7455 84.6875C9.23672 85.1378 8.97268 85.8628 8.95338 86.8627L8.93253 87.9425L8.6026 87.9361L8.62344 86.8563C8.63888 86.0564 8.4304 85.4573 7.99801 85.0589C7.55581 84.6503 6.90979 84.4378 6.05995 84.4214L5.96997 84.4196C5.03014 84.4015 4.32661 84.5779 3.85936 84.949C3.3923 85.3101 3.15212 85.8355 3.1388 86.5254C3.12935 87.0153 3.18613 87.4415 3.30916 87.8039C3.42238 88.1562 3.55195 88.4387 3.69787 88.6516C3.84399 88.8544 3.92704 88.9561 3.94704 88.9564L6.44862 89.9349L6.44254 90.2498L2.72323 90.178L2.72931 89.8631L3.43858 88.8716C3.42858 88.8714 3.36572 88.7602 3.24998 88.5379C3.12445 88.3054 3.01507 88.0133 2.92184 87.6614C2.82861 87.3095 2.78605 86.9237 2.79416 86.5037C2.82079 85.124 3.11503 84.1295 3.6769 83.5202C4.23895 82.9009 5.00489 82.6007 5.97471 82.6194C6.71457 82.6337 7.33982 82.8858 7.85046 83.3757C8.3613 83.8557 8.66763 84.5667 8.76947 85.5089C8.97201 84.3426 9.35825 83.5049 9.92818 82.9958C10.4981 82.4867 11.218 82.2405 12.0878 82.2573C13.1976 82.2787 14.0355 82.655 14.6015 83.386C15.1575 84.1169 15.4218 85.1922 15.3944 86.6119Z" fill="#F8F8F8"/>
<path d="M15.0571 81.9698L14.746 81.9203L14.3845 80.3743L3.82251 74.3035L3.86024 74.0665L16.1178 71.871L16.5569 70.5435L16.868 70.5931L16.1747 74.9482L15.8637 74.8987L15.8644 73.6534L12.1532 74.3537L11.526 78.2941L14.4458 79.9891L15.2506 78.7502L15.5617 78.7997L15.0571 81.9698ZM11.2338 78.126L11.8256 74.4078L6.3283 75.3555L11.2338 78.126Z" fill="#F8F8F8"/>
<path d="M17.6255 68.3291L17.3248 68.2353L17.5211 66.8509L6.93938 63.5487L6.20208 65.9113L8.69763 67.8843L8.56805 68.2996L5.37492 67.3031L8.28391 57.9815L11.477 58.978L11.343 59.4075L8.17269 59.5967L7.43092 61.9736L18.0126 65.2758L18.6385 64.0255L18.9392 64.1194L17.6255 68.3291Z" fill="#F8F8F8"/>
<path d="M19.6675 60.7657L20.0717 59.4296L10.2145 54.7306L9.41756 55.8795L9.13322 55.7439L11.0309 51.7631L11.3153 51.8986L10.9245 53.2412L15.1761 55.268L16.0927 53.3453C16.7253 52.0183 17.4492 51.1504 18.2645 50.7414C19.0752 50.3191 19.995 50.3533 21.024 50.8438C22.0531 51.3344 22.6633 52.0296 22.8547 52.9296C23.0413 53.8162 22.8184 54.9229 22.1858 56.2499L19.9654 60.9077L19.6675 60.7657ZM21.7569 56.2781C22.1571 55.4386 22.2576 54.7166 22.0584 54.112C21.8591 53.5074 21.3443 53.0072 20.5138 52.6113L19.9722 52.3531C19.1417 51.9572 18.4289 51.8722 17.8338 52.0981C17.2297 52.3197 16.7275 52.8502 16.3273 53.6897L15.5011 55.4229L20.9307 58.0112L21.7569 56.2781Z" fill="#F8F8F8"/>
<path d="M31.5851 42.0002C31.2665 42.3856 30.9226 42.6916 30.5535 42.9184C30.192 43.1516 29.8636 43.3212 29.5683 43.4273C29.2729 43.5335 29.1175 43.5802 29.1021 43.5674L29.0609 44.8179L28.8602 45.0606L25.8891 42.6042L26.0899 42.3614L28.5748 43.2871C28.5979 43.3062 28.7662 43.2832 29.0797 43.218C29.3931 43.1527 29.7523 43.0086 30.1573 42.7855C30.5624 42.5624 30.9497 42.2274 31.3192 41.7804C31.8609 41.1253 32.0581 40.4709 31.9109 39.8172C31.7637 39.1635 31.3201 38.5308 30.5803 37.9191L30.4531 37.8139C29.7286 37.2149 29.031 36.9366 28.3603 36.9789C27.6818 37.0148 27.024 37.4181 26.3868 38.1888L25.6986 39.0211L25.4443 38.8109L26.1325 37.9785C26.6422 37.362 26.8518 36.7632 26.7612 36.1823C26.6693 35.5872 26.2958 35.0189 25.6407 34.4773L25.5713 34.4199C24.8469 33.821 24.1863 33.5214 23.5897 33.5211C22.9994 33.5131 22.4844 33.775 22.0447 34.3068C21.7325 34.6845 21.5118 35.0534 21.3826 35.4137C21.252 35.7599 21.1777 36.0617 21.1595 36.3192C21.1476 36.5689 21.1494 36.7001 21.1648 36.7129L22.5144 39.0354L22.3136 39.2781L19.4467 36.9077L19.6474 36.6649L20.8196 36.3301C20.8118 36.3237 20.8318 36.1975 20.8796 35.9515C20.9259 35.6914 21.0221 35.3946 21.168 35.0612C21.314 34.7277 21.5208 34.3991 21.7884 34.0754C22.6678 33.0119 23.5169 32.4164 24.3359 32.2891C25.1612 32.154 25.9476 32.3955 26.6952 33.0136C27.2655 33.4851 27.5981 34.0715 27.693 34.7728C27.7943 35.4664 27.5917 36.2136 27.0852 37.0145C27.9694 36.2275 28.793 35.8121 29.556 35.7681C30.3189 35.7242 31.0356 35.9795 31.7061 36.5338C32.5616 37.2411 32.9834 38.057 32.9716 38.9815C32.9521 39.8996 32.49 40.9058 31.5851 42.0002Z" fill="#F8F8F8"/>
<path d="M34.416 37.934L34.2041 37.701L34.8877 36.268L30.433 24.9292L30.6106 24.7677L41.5533 30.7111L42.7255 29.9489L42.9375 30.1819L39.6754 33.1495L39.4634 32.9165L40.242 31.9445L36.9066 30.1728L33.9552 32.8578L35.1762 36.0055L36.5785 35.5409L36.7905 35.7739L34.416 37.934ZM33.832 32.5441L36.617 30.0105L31.7325 27.3161L33.832 32.5441Z" fill="#F8F8F8"/>
<path d="M49.8698 25.7404C49.4052 26.053 48.9814 26.1755 48.5984 26.1078C48.2153 26.0401 47.8009 25.7646 47.355 25.2811L45.6411 23.379C45.1617 22.8457 44.6959 22.5385 44.2434 22.4573C43.791 22.376 43.2619 22.5392 42.6563 22.9467L41.6109 23.6502L44.7681 28.3418L46.0386 27.758L46.2145 28.0194L42.5557 30.4814L42.3799 30.2201L43.3991 29.263L37.3026 20.2032L36.0405 20.7995L35.8562 20.5257L39.515 18.0636L39.6992 18.3374L38.6716 19.2821L41.41 23.3515L42.7167 22.4722C43.1093 22.1959 43.3462 21.8135 43.4273 21.325C43.5028 20.8282 43.4325 20.2849 43.2164 19.6951L42.547 17.8675C42.3505 17.3247 42.2902 16.859 42.3662 16.4704C42.4505 16.0762 42.6586 15.7674 42.9904 15.5441C43.2642 15.3599 43.5537 15.2796 43.8589 15.3032C44.1724 15.3213 44.4157 15.4589 44.5887 15.7161C44.7506 15.9567 44.8113 16.1991 44.7708 16.4434C44.7385 16.682 44.6104 16.8767 44.3864 17.0275L44.1375 17.195C43.7647 16.9275 43.4372 16.8887 43.1551 17.0785C42.8814 17.2628 42.8062 17.5183 42.9296 17.845L43.599 19.6727C43.7619 20.1296 43.84 20.5591 43.8334 20.9613C43.8212 21.3552 43.7298 21.694 43.5591 21.9776C44.3035 21.5972 44.9643 21.4418 45.5415 21.5114C46.1187 21.581 46.6302 21.8576 47.0761 22.341L48.6268 24.0276C48.9779 24.406 49.2466 24.6531 49.433 24.7688C49.6193 24.8845 49.7941 24.9114 49.9575 24.8497C49.988 24.8413 50.0281 24.8203 50.0779 24.7868C50.3268 24.6193 50.4932 24.3024 50.5772 23.8361L50.9395 23.9177C50.832 24.7253 50.4755 25.3328 49.8698 25.7404Z" fill="#F8F8F8"/>
<path d="M50.8627 24.7446L50.7272 24.4602L51.7959 23.2861L50.8099 11.1437L51.0265 11.0404L59.7835 19.8937L61.126 19.503L61.2616 19.7873L57.2808 21.685L57.1452 21.4007L58.1716 20.6954L55.4909 18.035L51.8892 19.752L52.148 23.1182L53.6248 23.0789L53.7603 23.3633L50.8627 24.7446ZM51.862 19.416L55.2606 17.7959L51.3637 13.8043L51.862 19.416Z" fill="#F8F8F8"/>
<path d="M65.8458 18.7019C65.368 18.8491 64.9125 18.9161 64.4795 18.9029C64.0494 18.8993 63.6818 18.8608 63.3766 18.7874C63.0715 18.7139 62.916 18.6676 62.9101 18.6485L62.1891 19.671L61.888 19.7637L60.7535 16.0794L61.0546 15.9867L62.6233 18.1247C62.6321 18.1534 62.7854 18.2265 63.0832 18.3441C63.381 18.4617 63.7604 18.5384 64.2213 18.5743C64.6823 18.6103 65.19 18.5429 65.7443 18.3722C66.5567 18.122 67.0808 17.6834 67.3166 17.0562C67.5525 16.429 67.5292 15.6567 67.2467 14.7392L67.1981 14.5815C66.9215 13.6831 66.4912 13.0675 65.9074 12.7345C65.3206 12.392 64.5494 12.3679 63.5937 12.6622L62.5615 12.9801L62.4644 12.6647L63.4966 12.3469C64.2611 12.1114 64.765 11.7261 65.0083 11.1908C65.2581 10.643 65.258 9.96291 65.0078 9.15055L64.9814 9.06453C64.7047 8.16616 64.3171 7.55308 63.8186 7.22528C63.3296 6.89453 62.7554 6.83069 62.0959 7.03376C61.6276 7.17796 61.2406 7.36515 60.9348 7.59534C60.6356 7.81303 60.4077 8.02445 60.2512 8.22961C60.1042 8.43183 60.0336 8.54249 60.0395 8.56161L59.8923 11.2437L59.5912 11.3364L58.4965 7.78114L58.7975 7.68844L59.9611 8.05212C59.9581 8.04256 60.0441 7.94807 60.2191 7.76864C60.4006 7.57671 60.644 7.38146 60.949 7.18288C61.2541 6.98431 61.6073 6.82322 62.0087 6.69962C63.3276 6.2935 64.3643 6.26203 65.1187 6.60521C65.8826 6.94545 66.4074 7.57909 66.6928 8.50614C66.9106 9.21337 66.8666 9.8861 66.5609 10.5243C66.2648 11.1596 65.6851 11.6729 64.8221 12.0642C65.9932 11.892 66.9097 11.9969 67.5715 12.3791C68.2333 12.7612 68.6922 13.3681 68.9482 14.1995C69.2749 15.2604 69.1795 16.1739 68.6621 16.9401C68.1417 17.6967 67.2029 18.284 65.8458 18.7019Z" fill="#F8F8F8"/>
<path d="M70.076 16.9365L70.0265 16.6255L71.3839 15.8018L73.8753 3.87692L74.1123 3.8392L80.0051 14.8093L81.4033 14.8145L81.4528 15.1256L77.0976 15.8189L77.0481 15.5078L78.2322 15.1218L76.4142 11.8115L72.4738 12.4387L71.7691 15.7405L73.1966 16.1208L73.2461 16.4319L70.076 16.9365ZM72.5428 12.1087L76.2609 11.5169L73.6533 6.58549L72.5428 12.1087Z" fill="#F8F8F8"/>
<path d="M83.9208 15.1211L83.9159 14.8061L85.2923 14.5598L85.1211 3.47614L82.6464 3.51435L81.5524 6.5016L81.1175 6.50831L81.0658 3.16371L90.8296 3.01295L90.8813 6.35755L90.4313 6.3645L89.2606 3.41222L86.7709 3.45066L86.9421 14.5343L88.3254 14.738L88.3302 15.053L83.9208 15.1211Z" fill="#F8F8F8"/>
<path d="M91.8637 14.6881L93.2592 14.6548L94.644 3.82294L93.3037 3.42475L93.3436 3.11229L97.718 3.67155L97.6781 3.98401L96.2807 4.03218L95.6834 8.70416L97.7962 8.97428C99.2543 9.16069 100.305 9.5773 100.948 10.2241C101.602 10.8622 101.857 11.7467 101.713 12.8775C101.568 14.0083 101.098 14.8051 100.303 15.268C99.5193 15.7223 98.3983 15.8562 96.9402 15.6698L91.8218 15.0154L91.8637 14.6881ZM96.7794 15.2712C97.7019 15.3891 98.4192 15.259 98.9313 14.8809C99.4434 14.5028 99.7577 13.8575 99.8744 12.9449L99.9505 12.3497C100.067 11.4372 99.9253 10.7335 99.5248 10.2387C99.1256 9.734 98.4647 9.42268 97.5422 9.30474L95.6377 9.06125L94.8749 15.0277L96.7794 15.2712Z" fill="#F8F8F8"/>
<path d="M113.361 20.1039C112.896 19.9212 112.498 19.6898 112.167 19.4097C111.833 19.1389 111.57 18.8798 111.377 18.6322C111.184 18.3846 111.091 18.2515 111.098 18.2329L109.897 18.5834L109.604 18.4683L111.012 14.8797L111.306 14.9948L111.2 17.6445C111.189 17.6724 111.264 17.8251 111.423 18.1026C111.583 18.3801 111.832 18.6766 112.17 18.9919C112.508 19.3072 112.947 19.5708 113.487 19.7827C114.279 20.0932 114.962 20.0767 115.537 19.7331C116.112 19.3895 116.575 18.7709 116.926 17.8772L116.986 17.7236C117.33 16.8486 117.377 16.099 117.128 15.4748C116.882 14.8413 116.294 14.3419 115.363 13.9766L114.358 13.5821L114.478 13.2749L115.483 13.6694C116.228 13.9617 116.862 13.9742 117.386 13.7071C117.923 13.4343 118.347 12.9023 118.657 12.1111L118.69 12.0273C119.033 11.1523 119.112 10.4312 118.927 9.8642C118.75 9.30083 118.341 8.89311 117.698 8.64105C117.242 8.46205 116.823 8.3673 116.44 8.3568C116.071 8.34065 115.761 8.36403 115.51 8.42695C115.269 8.49352 115.145 8.53612 115.138 8.55474L113.352 10.5608L113.059 10.4458L114.417 6.98286L114.711 7.09794L115.394 8.10738C115.398 8.09807 115.524 8.07775 115.773 8.04641C116.034 8.00942 116.346 8.0083 116.708 8.04307C117.071 8.07784 117.447 8.17194 117.838 8.32537C119.123 8.8295 119.954 9.4508 120.33 10.1893C120.715 10.9314 120.731 11.754 120.377 12.6569C120.106 13.3458 119.653 13.8446 119.016 14.1533C118.388 14.4656 117.615 14.506 116.696 14.2743C117.72 14.8693 118.371 15.5224 118.651 16.2336C118.93 16.9449 118.911 17.7055 118.593 18.5153C118.188 19.5486 117.544 20.2037 116.662 20.4806C115.783 20.7482 114.683 20.6226 113.361 20.1039Z" fill="#F8F8F8"/>
<path d="M118.338 21.6282L118.494 21.3547L120.068 21.5626L129.478 13.8256L129.686 13.9447L127.411 26.1876L128.498 27.0673L128.342 27.3408L124.512 25.154L124.668 24.8804L125.833 25.321L126.489 21.6016L123.024 19.6231L120.407 21.756L121.281 22.9465L121.125 23.22L118.338 21.6282ZM123.284 19.409L126.554 21.276L127.609 15.7984L123.284 19.409Z" fill="#F8F8F8"/>
<path d="M134.742 32.6033C134.301 32.2575 134.054 31.8921 134 31.5068C133.947 31.1215 134.081 30.6424 134.404 30.0693L135.686 27.8528C136.045 27.2325 136.194 26.6946 136.132 26.2392C136.07 25.7837 135.752 25.3306 135.178 24.88L134.186 24.1021L130.695 28.5508L131.642 29.5797L131.448 29.8275L127.978 27.105L128.173 26.8572L129.397 27.5322L136.139 18.9416L135.183 17.9244L135.387 17.6648L138.856 20.3873L138.652 20.6469L137.437 19.9602L134.409 23.8189L135.648 24.7912C136.032 25.0797 136.468 25.1873 136.958 25.1139C137.454 25.0328 137.949 24.7986 138.444 24.4113L139.976 23.2115C140.432 22.8574 140.857 22.6566 141.25 22.6092C141.651 22.568 142.009 22.6708 142.323 22.9178C142.583 23.1215 142.748 23.3722 142.82 23.6698C142.899 23.9736 142.843 24.2475 142.652 24.4913C142.473 24.7195 142.261 24.8519 142.016 24.8885C141.779 24.9314 141.554 24.8694 141.342 24.7027L141.106 24.5175C141.246 24.0805 141.182 23.757 140.914 23.5471C140.655 23.3434 140.388 23.3506 140.116 23.5686L138.583 24.7684C138.198 25.0641 137.814 25.2707 137.429 25.3883C137.051 25.4981 136.7 25.5154 136.378 25.4403C136.969 26.0314 137.32 26.6122 137.432 27.1828C137.543 27.7534 137.438 28.3252 137.115 28.8983L135.988 30.8931C135.736 31.3437 135.584 31.6755 135.531 31.8884C135.479 32.1013 135.507 32.2759 135.616 32.4123C135.633 32.4387 135.666 32.4704 135.713 32.5075C135.949 32.6927 136.302 32.7534 136.771 32.6897L136.805 33.0595C136.004 33.206 135.316 33.0539 134.742 32.6033Z" fill="#F8F8F8"/>
<path d="M136.265 33.5178L136.494 33.3017L137.94 33.9591L149.195 29.2992L149.36 29.4738L143.617 40.5227L144.4 41.6809L144.171 41.897L141.145 38.6894L141.374 38.4732L142.36 39.234L144.07 35.867L141.332 32.9648L138.207 34.2428L138.697 35.6365L138.468 35.8527L136.265 33.5178ZM141.644 32.836L144.227 35.5745L146.833 30.6418L141.644 32.836Z" fill="#F8F8F8"/>
<path d="M146.137 45.3092C145.847 44.9017 145.64 44.4903 145.517 44.075C145.385 43.6655 145.307 43.3043 145.281 42.9916C145.255 42.6788 145.25 42.5166 145.266 42.505L144.069 42.1413L143.887 41.8846L147.029 39.6512L147.211 39.9079L145.673 42.0683C145.649 42.0857 145.628 42.2542 145.609 42.5738C145.591 42.8935 145.637 43.2778 145.748 43.7268C145.859 44.1757 146.082 44.6366 146.418 45.1093C146.91 45.8022 147.491 46.1621 148.161 46.1893C148.83 46.2164 149.556 45.9519 150.339 45.3957L150.473 45.3001C151.24 44.7555 151.689 44.1538 151.822 43.495C151.963 42.8304 151.744 42.0905 151.164 41.2754L150.539 40.3952L150.808 40.204L151.433 41.0843C151.897 41.7363 152.421 42.0938 153.006 42.1568C153.604 42.2221 154.25 42.0086 154.943 41.5161L155.016 41.464C155.782 40.9194 156.243 40.359 156.397 39.7827C156.558 39.2147 156.438 38.6494 156.039 38.087C155.755 37.6876 155.456 37.3789 155.141 37.1608C154.84 36.945 154.568 36.795 154.324 36.7107C154.086 36.6346 153.959 36.6024 153.943 36.6139L151.35 37.3159L151.167 37.0591L154.199 34.904L154.382 35.1607L154.402 36.3796C154.41 36.3738 154.527 36.4258 154.752 36.5356C154.991 36.6478 155.253 36.8175 155.537 37.0449C155.821 37.2722 156.085 37.557 156.329 37.8994C157.128 39.0242 157.483 39.9986 157.394 40.8226C157.311 41.6547 156.874 42.3518 156.083 42.9137C155.48 43.3425 154.828 43.5118 154.126 43.4218C153.429 43.34 152.76 42.9508 152.118 42.2541C152.649 43.3121 152.837 44.2152 152.682 44.9634C152.527 45.7117 152.094 46.3379 151.385 46.8419C150.481 47.485 149.583 47.6811 148.693 47.4303C147.812 47.1736 146.959 46.4666 146.137 45.3092Z" fill="#F8F8F8"/>
<path d="M149.393 49.1816L149.673 49.0376L150.879 50.0711L162.987 48.7252L163.096 48.9387L154.507 57.9545L154.937 59.2848L154.657 59.4288L152.642 55.506L152.922 55.3621L153.657 56.3671L156.237 53.6087L154.414 50.0595L151.057 50.418L151.14 51.893L150.86 52.0369L149.393 49.1816ZM154.749 50.0223L156.469 53.3713L160.343 49.3577L154.749 50.0223Z" fill="#F8F8F8"/>
<path d="M155.312 61.508L155.61 61.4051L156.273 62.636L166.75 59.0161L165.942 56.6768L162.762 56.5692L162.62 56.158L165.782 55.0657L168.971 64.2953L165.809 65.3877L165.662 64.9623L168.102 62.9291L167.289 60.5756L156.812 64.1955L157.05 65.5733L156.752 65.6762L155.312 61.508Z" fill="#F8F8F8"/>
<path d="M158.206 69.0099L158.671 70.3261L169.398 68.2801L169.36 66.8824L169.669 66.8234L170.496 71.1553L170.186 71.2143L169.707 69.9009L165.08 70.7834L165.479 72.8756C165.755 74.3196 165.685 75.4477 165.27 76.2599C164.866 77.08 164.104 77.5968 162.985 77.8104C161.865 78.024 160.961 77.8247 160.275 77.2126C159.599 76.6084 159.124 75.5843 158.849 74.1403L157.882 69.0717L158.206 69.0099ZM159.178 73.8638C159.352 74.7773 159.698 75.4188 160.217 75.7882C160.735 76.1576 161.446 76.2561 162.35 76.0838L162.939 75.9714C163.843 75.799 164.468 75.4457 164.814 74.9114C165.17 74.3752 165.26 73.6503 165.086 72.7368L164.726 70.8508L158.818 71.9778L159.178 73.8638Z" fill="#F8F8F8"/>
</svg>
