<svg width="18" height="18" viewBox="0 0 18 18" fill="none" xmlns="http://www.w3.org/2000/svg">
<path fill-rule="evenodd" clip-rule="evenodd" d="M15.944 12.7439C15.4335 12.333 14.8879 11.9641 14.3509 11.5872C13.2799 10.835 12.3003 10.7765 11.5012 11.9867C11.0524 12.6662 10.4241 12.6959 9.76719 12.3979C7.95623 11.5767 6.55781 10.3115 5.73867 8.47082C5.37631 7.65646 5.38108 6.92633 6.22889 6.35036C6.67776 6.04575 7.12998 5.68532 7.09382 5.01973C7.04661 4.15188 4.93945 1.25161 4.10734 0.945498C3.76302 0.81881 3.42012 0.827055 3.06981 0.944787C1.11864 1.60095 0.310468 3.20563 1.08445 5.10566C3.39346 10.7743 7.45693 14.7206 13.0505 17.1292C13.3695 17.2663 13.7237 17.3212 13.9031 17.3704C15.1766 17.3832 16.6684 16.1562 17.0993 14.9386C17.5141 13.7671 16.6374 13.3021 15.944 12.7439ZM9.67219 1.52667C13.7615 2.1555 15.6474 4.09998 16.1681 8.2187C16.2164 8.59915 16.0747 9.17161 16.6175 9.18215C17.1848 9.19299 17.0481 8.62899 17.0529 8.24817C17.1008 4.36909 13.7185 0.773023 9.79042 0.640434C9.49407 0.683082 8.88084 0.436067 8.84259 1.10031C8.8171 1.54814 9.33339 1.47456 9.67219 1.52667Z" fill="#F8F8F8"/>
<path fill-rule="evenodd" clip-rule="evenodd" d="M10.4721 2.65603C10.0788 2.60866 9.55952 2.42333 9.46761 2.96909C9.37164 3.54193 9.95038 3.48375 10.3222 3.567C12.8479 4.13147 13.7273 5.05072 14.1432 7.55602C14.2039 7.92127 14.0832 8.48976 14.7039 8.39555C15.1639 8.32549 14.9978 7.8382 15.0363 7.55356C15.0566 5.14828 12.9956 2.95905 10.4721 2.65603Z" fill="#F8F8F8"/>
<path fill-rule="evenodd" clip-rule="evenodd" d="M10.7039 4.62274C10.4414 4.62923 10.1837 4.65764 10.0872 4.93822C9.94226 5.35759 10.2472 5.45757 10.5575 5.50742C11.5935 5.67374 12.1388 6.28467 12.2423 7.31784C12.2703 7.59825 12.4482 7.82547 12.7191 7.7935C13.0945 7.74871 13.1284 7.41461 13.1169 7.09732C13.1354 5.93658 11.8235 4.59495 10.7039 4.62274Z" fill="#F8F8F8"/>
</svg>
